<?xml version="1.0" encoding="UTF-8"?>
<svg xmlns="http://www.w3.org/2000/svg" version="1.1" viewBox="0 0 241.4 237.8">
  <defs>
    <style>
      .cls-1 {
        fill: #c9d3dc;
      }
    </style>
  </defs>
  <!-- Generator: Adobe Illustrator 28.7.7, SVG Export Plug-In . SVG Version: 1.2.0 Build 194)  -->
  <g>
    <g id="Layer_1">
      <path class="cls-1" d="M210.7,7.2c-18.2,4.8-40,14.1-68.5,34.4-25.2,17.9-49.1,41.3-53.8,59.4-8.9,34.2-6.6,70-6.6,70l-50.1-41.4s-8.5-.3-8.1,8.7,72.7,73.7,72.7,73.7l82.3-66.2s-.8-6.9-6.6-7.5c-13.8-1.6-66.1,35.8-66.1,35.8,0,0,1.8-42.9,10.9-70.7,7-21.3,38-56.1,76.3-74.6,26.8-13,33.2-25.6,17.7-21.6Z"/>
    </g>
  </g>
</svg>